<svg width="76" height="58" viewBox="0 0 76 58" fill="none" xmlns="http://www.w3.org/2000/svg">
<path fill-rule="evenodd" clip-rule="evenodd" d="M56.8 0.799988H19.2L0.400024 19.6V47.8C0.400024 53.1267 4.78669 57.2 9.80002 57.2H66.2C71.5267 57.2 75.6 53.1267 75.6 47.8V19.6L56.8 0.799988ZM21.7067 7.06665H54.2934L66.8267 19.6H50.5334C50.5334 25.8667 44.8934 32.1333 38 32.1333C31.1067 32.1333 25.4667 25.8667 25.4667 19.6H9.17336L21.7067 7.06665ZM69.3334 47.8C69.3334 49.68 68.08 50.9333 66.2 50.9333H9.80002C7.92002 50.9333 6.66669 49.3667 6.66669 47.8V25.8667H20.14C22.96 33.0733 30.1667 38.4 38 38.4C45.8334 38.4 53.04 33.0733 55.5467 25.8667H69.3334V47.8Z" fill="white"/>
</svg>
