<svg width="58" height="76" viewBox="0 0 58 76" fill="none" xmlns="http://www.w3.org/2000/svg">
<path fill-rule="evenodd" clip-rule="evenodd" d="M47.8 17.0067V9.80002C47.8 4.47336 43.7267 0.400024 38.4 0.400024H19.6C14.2733 0.400024 10.2 4.47336 10.2 9.80002V17.0067C4.55999 22.02 0.799988 29.54 0.799988 38C0.799988 46.46 4.55999 53.98 10.2 58.9934V66.2C10.2 71.5267 14.2733 75.6 19.6 75.6H38.4C43.7267 75.6 47.8 71.5267 47.8 66.2V58.9934C53.44 53.98 57.2 46.46 57.2 38C57.2 29.54 53.44 22.02 47.8 17.0067ZM16.4667 9.80002C16.4667 7.92002 17.72 6.66669 19.6 6.66669H38.4C40.28 6.66669 41.5333 7.92002 41.5333 9.80002V12.62C37.7733 10.74 33.3867 9.80002 29 9.80002C24.6133 9.80002 20.2267 10.74 16.4667 12.62V9.80002ZM41.5333 66.2C41.5333 68.08 40.28 69.3334 38.4 69.3334H19.6C17.72 69.3334 16.4667 68.08 16.4667 66.2V63.38C20.2267 65.26 24.6133 66.2 29 66.2C33.3867 66.2 37.7733 65.26 41.5333 63.38V66.2ZM29 59.9334C16.78 59.9334 7.06665 50.22 7.06665 38C7.06665 25.78 16.78 16.0667 29 16.0667C41.22 16.0667 50.9333 25.78 50.9333 38C50.9333 50.22 41.22 59.9334 29 59.9334ZM32.1333 36.7467V25.4667C32.1333 23.5867 30.88 22.3334 29 22.3334C27.12 22.3334 25.8667 23.5867 25.8667 25.4667V38C25.8667 38.94 26.18 39.5667 26.8067 40.1934L33.0733 46.46C33.7 47.0867 34.64 47.4 35.2667 47.4C35.8933 47.4 36.8333 47.0867 37.46 46.46C38.7133 45.2067 38.7133 43.3267 37.46 42.0734L32.1333 36.7467Z" fill="white"/>
</svg>
