<svg width="70" height="70" viewBox="0 0 70 70" fill="none" xmlns="http://www.w3.org/2000/svg">
<path fill-rule="evenodd" clip-rule="evenodd" d="M28.7333 3.66666C26.8533 3.66666 25.6 4.91999 25.6 6.79999V21.2133L5.85999 1.47333C4.60666 0.219992 2.72666 0.219992 1.47333 1.47333C0.219992 2.72666 0.219992 4.60666 1.47333 5.85999L21.2133 25.6H6.79999C4.91999 25.6 3.66666 26.8533 3.66666 28.7333C3.66666 30.6133 4.91999 31.8667 6.79999 31.8667H28.7333C30.6133 31.8667 31.8667 30.3 31.8667 28.7333V6.79999C31.8667 4.91999 30.3 3.66666 28.7333 3.66666ZM68.5267 64.14L48.7867 44.4H63.2C65.08 44.4 66.3333 43.1467 66.3333 41.2667C66.3333 39.3867 65.08 38.1333 63.2 38.1333H41.2667C39.3867 38.1333 38.1333 39.7 38.1333 41.2667V63.2C38.1333 65.08 39.3867 66.3333 41.2667 66.3333C43.1467 66.3333 44.4 65.08 44.4 63.2V48.7867L64.14 68.5267C65.3933 69.78 67.2733 69.78 68.5267 68.5267C69.78 67.2733 69.78 65.3933 68.5267 64.14Z" fill="white"/>
</svg>
